<svg xmlns="http://www.w3.org/2000/svg" width="3500" height="878" viewBox="0 0 3500 878" version="1.1"><path d="M 431.500 283.724 C 430.400 283.994, 428.987 284.631, 428.361 285.138 C 427.083 286.173, 425.912 291, 426.938 291 C 427.301 291, 427.415 292.575, 427.190 294.500 L 426.781 298 431.268 298 C 436.028 298, 437.393 297.027, 438.285 293 C 438.589 291.625, 439.135 289.555, 439.497 288.399 C 440.707 284.537, 437.003 282.371, 431.500 283.724" stroke="none" fill="#243484" fill-rule="evenodd"/><path d="M 1729.204 1.529 C 1693.291 2.205, 1663.610 3.056, 1663.246 3.421 C 1662.490 4.176, 1666.852 866.951, 1667.618 868.190 C 1667.893 868.636, 1705.666 869, 1751.559 869 C 1828.785 869, 1835 868.876, 1835 867.333 C 1835 864.581, 1839.110 826.556, 1839.444 826.223 C 1839.613 826.053, 1843.484 828.588, 1848.045 831.855 C 1878.381 853.584, 1922.892 868.710, 1969.305 873.063 C 1987.566 874.775, 2025.778 873.761, 2042 871.134 C 2100.341 861.684, 2141.844 840.632, 2177.962 802.168 C 2222.100 755.163, 2251.972 699.984, 2267.378 637 C 2296.144 519.398, 2269.507 392.301, 2198.217 307 C 2187.052 293.641, 2167.210 274.766, 2153.847 264.794 C 2104.463 227.939, 2050.893 209.897, 2002.936 213.968 C 1971.016 216.678, 1946.378 224.253, 1908.500 243.006 C 1896.400 248.996, 1877.314 259.320, 1866.086 265.949 C 1854.859 272.577, 1845.521 278, 1845.336 278 C 1845.151 278, 1845 250.624, 1845 217.165 C 1845 183.706, 1844.701 121.156, 1844.335 78.165 L 1843.671 0 1819.085 0.150 C 1805.563 0.232, 1765.117 0.853, 1729.204 1.529 M 2586.033 210.115 C 2471.074 220.315, 2373.474 309.259, 2332.679 441 C 2321.270 477.846, 2315.878 514.149, 2315.887 554.055 C 2315.892 576.656, 2316.763 589.520, 2319.596 608.854 C 2331.666 691.229, 2374.684 764.645, 2438.988 812.612 C 2483.073 845.496, 2542.104 867.391, 2609 875.671 C 2629.145 878.164, 2679.584 878.179, 2698.965 875.697 C 2756.149 868.373, 2806.830 848.810, 2842.136 820.432 C 2847.924 815.779, 2849.161 814.164, 2851.809 807.799 C 2857.946 793.043, 2863.453 767.882, 2866.429 741 C 2869.212 715.864, 2871.518 662, 2869.812 662 C 2869.262 662, 2857.492 666.106, 2843.656 671.123 C 2769.323 698.082, 2721.342 711.308, 2678.500 716.650 C 2658.261 719.174, 2627.389 718.950, 2611.889 716.166 C 2559.528 706.765, 2526.085 677.250, 2508.586 625 L 2505.069 614.500 2537.285 613.777 C 2555.003 613.379, 2643.736 611.668, 2734.468 609.975 C 2825.201 608.282, 2899.650 606.684, 2899.910 606.424 C 2900.869 605.465, 2900.214 541.006, 2899.097 526.500 C 2889.913 407.146, 2852.503 322.170, 2785.500 268.465 C 2734.521 227.604, 2654.092 204.076, 2586.033 210.115 M 1344 215.115 C 1304.080 216.935, 1274.084 227.624, 1242.500 251.282 C 1237 255.402, 1222.618 267.149, 1210.539 277.386 C 1198.461 287.624, 1188.292 296, 1187.942 296 C 1186.905 296, 1172.849 283.743, 1160.756 272.295 C 1124.507 237.978, 1102.473 226.009, 1062.381 218.857 C 1050.902 216.810, 1046.288 216.556, 1020 216.530 C 996.114 216.506, 988.407 216.845, 979.500 218.314 C 956.708 222.072, 939.917 227.134, 922 235.649 C 902.026 245.141, 888.323 254.728, 871.908 270.695 L 863.317 279.052 862.628 256.778 C 862.049 238.066, 861.647 233.944, 860.114 231.002 L 858.289 227.500 826.894 227.631 C 809.627 227.702, 772.213 228.093, 743.750 228.500 L 692 229.238 692.017 266.369 C 692.040 318.829, 695.872 868.229, 696.216 868.438 C 696.912 868.861, 870.272 867.061, 870.707 866.627 C 870.974 866.359, 871.607 857.896, 872.112 847.820 C 873.073 828.647, 872.369 796.051, 869.349 720 C 866.433 646.587, 867.136 568.160, 871.070 528 C 881.138 425.196, 910.912 376.514, 962 379.324 C 1000.138 381.422, 1023.589 401.494, 1035.360 442.115 C 1038.516 453.006, 1041.655 471.954, 1043.044 488.500 C 1044.640 507.520, 1044.363 561.903, 1042.446 606 C 1040.210 657.417, 1040.186 715.576, 1042.391 739.840 C 1046.005 779.613, 1052.536 807.307, 1064.093 831.867 C 1069.516 843.392, 1077.770 856.344, 1084.261 863.513 L 1088.529 868.228 1178.015 866.488 C 1227.232 865.531, 1267.623 864.644, 1267.774 864.517 C 1267.924 864.390, 1262.862 853.771, 1256.524 840.919 C 1233.642 794.520, 1225.903 772.638, 1223.110 746.448 C 1222.541 741.109, 1222.290 690.510, 1222.486 621 C 1222.767 521.796, 1223.058 502.273, 1224.444 489.500 C 1231.286 426.450, 1251.185 394.134, 1289.500 383.852 C 1296.002 382.107, 1300.309 381.705, 1312.500 381.705 C 1337.021 381.705, 1349.195 386.173, 1363.602 400.463 C 1370.486 407.291, 1372.478 410.079, 1376.842 419 C 1389.759 445.403, 1393.837 476.861, 1392.591 540.500 C 1392.214 559.750, 1391.490 583.150, 1390.981 592.500 C 1389.281 623.758, 1388.642 695.208, 1389.895 714 C 1394.231 779.082, 1407.392 820.634, 1433.661 852.181 C 1437.179 856.405, 1442.239 861.689, 1444.906 863.922 L 1449.756 867.982 1539.558 866.977 C 1588.950 866.425, 1629.469 865.865, 1629.600 865.733 C 1629.732 865.601, 1626.464 861.445, 1622.337 856.497 C 1590.776 818.656, 1575.154 772.945, 1570.902 706 C 1569.367 681.833, 1570.240 633.898, 1573.142 583 C 1576.175 529.811, 1576.437 453.366, 1573.676 427.500 C 1568.573 379.693, 1558.947 342.458, 1544.873 316.083 C 1532.424 292.753, 1512.580 269.204, 1492.312 253.710 C 1466.698 234.128, 1434.320 221.171, 1400.500 216.968 C 1387.264 215.324, 1359.442 214.411, 1344 215.115 M 248 216.126 C 184.904 223.413, 126.517 252.648, 86.344 297.068 C 41.153 347.037, 12.581 414.784, 2.446 496 C 0.288 513.286, -0.581 561.703, 0.927 580.592 C 7.178 658.914, 32.848 728.873, 74.463 781 C 110.946 826.699, 167.237 862.853, 219 873.830 C 235.999 877.435, 246.977 878.310, 267.350 877.681 C 314.151 876.238, 356.078 862.069, 427.750 823.476 L 440 816.880 440 842.522 L 440 868.164 521.250 867.547 C 565.938 867.208, 604.885 866.686, 607.800 866.387 L 613.100 865.844 612.414 546.672 C 612.037 371.127, 611.562 227.310, 611.358 227.077 C 610.842 226.488, 520.111 226.876, 476.290 227.654 L 440.080 228.297 439.020 233.405 C 438.436 236.215, 437.544 247.604, 437.037 258.715 C 436.530 269.825, 435.649 279.788, 435.078 280.854 C 434.207 282.481, 434.422 282.889, 436.410 283.388 C 439.533 284.172, 440.290 286.452, 438.896 290.879 C 436.924 297.141, 436.561 297.483, 431.531 297.810 L 426.767 298.119 427.183 294.560 C 427.411 292.602, 427.281 291, 426.893 291 C 425.996 291, 426.975 286.901, 428.267 285.250 C 428.805 284.563, 430.090 284, 431.122 284 C 432.155 284, 433.006 283.438, 433.014 282.750 C 433.034 280.831, 412.919 261.822, 403.176 254.553 C 375.381 233.816, 339.400 220.155, 301.789 216.058 C 290.501 214.828, 258.889 214.868, 248 216.126 M 2880 229.803 C 2880 235.756, 2889.895 272.906, 2903.625 318.500 C 2956.605 494.438, 3066.906 817.756, 3089.073 862.091 L 3091.868 867.682 3191.042 868.400 C 3245.588 868.794, 3290.362 868.971, 3290.540 868.793 C 3291.098 868.235, 3500 229.239, 3500 228.091 C 3500 227.491, 3498.988 227.022, 3497.750 227.049 C 3496.512 227.075, 3453.745 227.903, 3402.710 228.888 C 3350.848 229.890, 3309.547 231.081, 3309.075 231.590 C 3308.610 232.090, 3281.097 324.525, 3247.935 437 C 3214.773 549.475, 3187.360 641.839, 3187.017 642.253 C 3186.674 642.668, 3159.877 549.405, 3127.467 435.003 L 3068.541 227 2974.271 227 L 2880 227 2880 229.803 M 2601.500 367.041 C 2562.703 373.079, 2529.915 403.620, 2514.051 448.500 C 2510.703 457.969, 2506.025 475.278, 2506.009 478.250 C 2506 479.906, 2511.728 480, 2612.356 480 L 2718.712 480 2717.398 472.447 C 2711.231 436.981, 2694.711 406.178, 2671.959 387.718 C 2661.930 379.581, 2646.821 371.808, 2635.500 368.963 C 2626.167 366.617, 2610.069 365.707, 2601.500 367.041 M 303.635 384.035 C 287.089 386.636, 270.178 392.587, 252 402.205 C 231.780 412.904, 221.859 420.700, 213.539 432.430 C 202.505 447.987, 193.387 473.721, 188.079 504.286 C 171.268 601.100, 213.216 690.470, 284.737 710.219 C 291.199 712.003, 295.348 712.374, 309.500 712.431 C 325.151 712.495, 327.289 712.280, 336.442 709.723 C 361.058 702.846, 384.082 687.895, 399.471 668.794 C 424.037 638.303, 437 596.719, 437 548.409 C 437 528.159, 435.898 516.442, 432.351 499 C 425.760 466.585, 412.588 438.510, 393.749 416.721 C 382.114 403.264, 361.716 390.522, 344.500 385.956 C 335.354 383.530, 313.405 382.498, 303.635 384.035 M 1958.500 384.400 C 1932.722 389.325, 1903.355 404.324, 1884.445 422.224 C 1853.694 451.332, 1837.742 492.885, 1837.694 544 C 1837.654 587.125, 1848.084 623.594, 1869.870 656.500 C 1878.471 669.491, 1896.337 687.621, 1908.232 695.429 C 1940.161 716.387, 1977.089 718.030, 2016.176 700.232 C 2043.723 687.689, 2065.621 661.583, 2077.906 626.643 C 2093.013 583.671, 2094.374 529.510, 2081.523 482.667 C 2067.427 431.286, 2037.966 395.952, 2000.500 385.492 C 1992.389 383.228, 1967.960 382.592, 1958.500 384.400" stroke="none" fill="#04448c" fill-rule="evenodd"/></svg>