<svg xmlns="http://www.w3.org/2000/svg" width="3500" height="2922" viewBox="0 0 3500 2922" version="1.1"><path d="" stroke="none" fill="#cc0c34" fill-rule="evenodd"/><path d="M 1738 0.637 C 1686.877 4.165, 1652.483 9.137, 1603.500 20.079 C 1593.600 22.291, 1581.225 25.242, 1576 26.638 C 1570.775 28.034, 1564.700 29.607, 1562.500 30.134 C 1546.246 34.028, 1500.457 48.936, 1478 57.645 C 1420.297 80.023, 1367.707 107.447, 1318.500 140.820 C 1298.707 154.243, 1262.263 182.321, 1251.985 192.064 C 1251.152 192.854, 1246.427 197.082, 1241.485 201.459 C 1201.756 236.652, 1158.817 285.596, 1124.331 335 C 1116.478 346.250, 1098 374.709, 1098 375.553 C 1098 375.788, 1096.020 379.068, 1093.601 382.842 C 1082.794 399.703, 1053.161 456.054, 1044.088 477 C 1033.601 501.207, 1027.664 509.415, 1016.831 514.680 C 1013.349 516.373, 999.925 521.243, 987 525.503 C 908.018 551.536, 818.113 590.831, 763.113 623.357 C 749.788 631.237, 745.160 635.372, 740.927 643.179 C 737.636 649.249, 737.501 649.917, 737.525 660 C 737.552 671.595, 739.531 678.829, 744.725 686.325 C 748.039 691.107, 755.840 696.411, 762 698.070 C 768.288 699.764, 781.031 699.542, 790.500 697.574 C 797.468 696.126, 869.613 677.976, 949.870 657.479 C 981.967 649.282, 986.946 649.127, 990.606 656.205 C 992.564 659.992, 992.214 667.767, 989.037 691 C 985.137 719.519, 984.040 734.213, 984.020 758.170 C 983.988 796.753, 987.340 833.178, 997.625 906 C 1000.285 924.836, 1007.630 960.729, 1011.948 976 C 1012.959 979.575, 1015.026 987, 1016.541 992.500 C 1018.055 998, 1022.332 1011.500, 1026.043 1022.500 C 1055.279 1109.150, 1098.591 1186.999, 1159.849 1263 C 1192.565 1303.590, 1223.494 1334.747, 1268.738 1372.692 C 1289.005 1389.689, 1340.739 1425.806, 1355.500 1433.262 C 1365.235 1438.179, 1369.412 1439.327, 1377.595 1439.330 C 1394.834 1439.338, 1411.194 1424.808, 1415.098 1406.023 C 1416.874 1397.476, 1415.810 1388.080, 1412.389 1382.104 C 1410.656 1379.077, 1399.885 1367.342, 1385.472 1352.779 C 1364.537 1331.626, 1354.278 1320.701, 1346.242 1311 C 1345.103 1309.625, 1341.124 1304.900, 1337.399 1300.500 C 1321.528 1281.752, 1294.522 1243.724, 1278.659 1217.784 C 1260.895 1188.735, 1238.155 1141.182, 1225.373 1106.355 C 1203.921 1047.905, 1190.681 986.838, 1184.967 920 C 1183.478 902.583, 1183.193 891.094, 1183.468 859.500 C 1183.655 838.050, 1184.036 819.375, 1184.315 818 C 1184.594 816.625, 1185.111 811.675, 1185.465 807 C 1186.154 797.886, 1189.360 772.342, 1191.049 762.500 C 1198.147 721.160, 1208.084 684.395, 1222.802 645.021 C 1234.824 612.859, 1236.242 611.493, 1259.194 609.951 C 1267.062 609.423, 1284.750 608.094, 1298.500 606.998 C 1367.475 601.503, 1365.745 601.562, 1457 601.530 C 1531.668 601.504, 1576.897 602.191, 1585.241 603.478 C 1586.484 603.669, 1593.125 604.105, 1600 604.447 C 1606.875 604.788, 1614.975 605.272, 1618 605.523 C 1621.025 605.773, 1635.875 606.892, 1651 608.009 C 1681.964 610.296, 1716.415 613.275, 1738 615.531 C 1757.394 617.558, 1758.573 617.691, 1773 619.470 C 1779.875 620.318, 1787.075 621.201, 1789 621.432 C 1800.042 622.759, 1818.698 625.283, 1826.500 626.507 C 1831.450 627.283, 1837.525 628.195, 1840 628.533 C 1866.179 632.110, 1949.093 647.779, 1980.479 655.080 C 2025.060 665.450, 2021.379 664.515, 2061 675.532 C 2086.254 682.553, 2093.913 684.921, 2125.500 695.467 C 2156.795 705.916, 2193.206 719.365, 2205.500 725.017 C 2206.600 725.522, 2214.700 729.034, 2223.500 732.821 C 2248.696 743.662, 2286.316 761.888, 2307 773.273 C 2353.318 798.769, 2378.780 815.811, 2409.500 841.878 C 2451.097 877.175, 2487.779 925.977, 2501.953 964.880 C 2515.817 1002.931, 2516.402 1037.595, 2503.821 1075.500 C 2497.155 1095.585, 2484.633 1119.731, 2471.670 1137.500 C 2454.357 1161.230, 2427.070 1189.958, 2399.964 1212.994 C 2396.409 1216.015, 2393.275 1218.715, 2393 1218.994 C 2390.295 1221.732, 2367.262 1239.601, 2353.389 1249.723 C 2341.254 1258.578, 2316.758 1274.999, 2305.174 1282.044 C 2301.145 1284.495, 2296.375 1287.400, 2294.574 1288.500 C 2292.774 1289.600, 2286.170 1293.391, 2279.900 1296.925 C 2273.630 1300.459, 2267.375 1304.119, 2266 1305.058 C 2260.798 1308.611, 2209.532 1334.319, 2186.500 1344.923 C 2173.300 1351.001, 2159.350 1357.627, 2155.500 1359.649 C 2140.528 1367.509, 2130.501 1375.658, 2125.807 1383.779 C 2122.633 1389.270, 2122.501 1389.923, 2122.516 1400 C 2122.531 1409.788, 2122.750 1410.941, 2125.744 1417 C 2129.796 1425.201, 2133.300 1429.122, 2140.389 1433.391 C 2150.537 1439.502, 2162.854 1440.307, 2179.445 1435.944 C 2205.286 1429.149, 2287.746 1398.946, 2318.500 1385.011 C 2319.600 1384.513, 2325.900 1381.795, 2332.500 1378.971 C 2339.100 1376.147, 2345.850 1373.223, 2347.500 1372.472 C 2349.150 1371.722, 2355 1369.122, 2360.500 1366.694 C 2386.568 1355.190, 2426.878 1335.506, 2450.287 1322.849 C 2527.400 1281.156, 2590.753 1235.184, 2642.350 1183.479 C 2671.244 1154.523, 2691.086 1131.037, 2707.381 1106.500 C 2721.142 1085.781, 2721.685 1084.865, 2730.521 1067.500 C 2748.574 1032.023, 2759.145 996.131, 2762.625 958.500 C 2763.813 945.659, 2763.209 912.208, 2761.546 898.719 C 2753.911 836.774, 2728.643 782.767, 2681 726.562 C 2667.385 710.500, 2642.874 686.169, 2624.424 670.402 C 2607.906 656.285, 2605.382 654.243, 2590.110 642.639 C 2520.283 589.582, 2422.357 540.427, 2311 502.535 C 2290.183 495.452, 2244.685 481.497, 2229 477.385 C 2186.970 466.367, 2177.508 464.082, 2142.500 456.497 C 2118.701 451.340, 2080.297 444.046, 2063 441.398 C 2061.075 441.103, 2054.550 440.014, 2048.500 438.978 C 2035.482 436.748, 2036.233 436.863, 2009.500 433.049 C 1988.470 430.049, 1945.213 424.656, 1933 423.512 C 1929.425 423.178, 1924.925 422.724, 1923 422.504 C 1921.075 422.284, 1915.675 421.843, 1911 421.524 C 1906.325 421.205, 1900.475 420.729, 1898 420.466 C 1895.525 420.204, 1881.800 419.321, 1867.500 418.505 C 1822.457 415.934, 1782.911 413.331, 1777 412.548 C 1767.612 411.304, 1738.761 410.500, 1703.500 410.500 C 1668.211 410.500, 1623.604 411.563, 1618.500 412.525 C 1617.400 412.732, 1610.875 413.177, 1604 413.513 C 1565.967 415.373, 1475.669 421.756, 1463 423.480 C 1461.075 423.742, 1456.350 424.220, 1452.500 424.541 C 1444.730 425.190, 1408.047 428.734, 1401 429.516 C 1395.943 430.078, 1366.883 432.642, 1354.186 433.647 L 1345.872 434.305 1353.386 423.821 C 1358.523 416.654, 1366.532 407.785, 1378.700 395.788 C 1444.401 331.010, 1510.579 285.040, 1591.500 247.968 C 1610.170 239.415, 1650.004 224.738, 1675.500 217.018 C 1723.889 202.365, 1764.774 194.300, 1820 188.514 C 1842.522 186.155, 1903.353 185.545, 1922.500 187.488 C 1924.700 187.711, 1932.125 188.384, 1939 188.984 C 2002.315 194.509, 2069.992 210.514, 2135.500 235.454 C 2197.014 258.874, 2252.662 289.408, 2300.344 325.904 C 2307.959 331.732, 2317.184 338.790, 2320.844 341.589 C 2336.794 353.786, 2351.074 358.518, 2363.225 355.633 C 2374.819 352.881, 2385.696 343.977, 2390.874 333 C 2393.086 328.311, 2393.461 326.173, 2393.417 318.500 C 2393.299 298.116, 2387.248 290.052, 2326.581 229.441 C 2295.386 198.275, 2281.062 185.457, 2253.374 163.928 C 2205.031 126.342, 2149.652 93.666, 2091 68.122 C 2083.025 64.649, 2075.150 61.214, 2073.500 60.488 C 2070.749 59.279, 2064.167 56.684, 2045.606 49.492 C 2033.293 44.721, 1998.408 33.247, 1984.787 29.487 C 1977.479 27.470, 1969.475 25.206, 1967 24.456 C 1964.525 23.705, 1955.750 21.530, 1947.500 19.620 C 1905.019 9.789, 1865.565 3.936, 1822.463 1.071 C 1811.048 0.312, 1747.445 -0.014, 1738 0.637 M 1926.500 1242.313 C 1916.426 1245.701, 1915.101 1246.428, 1845.500 1286.787 C 1838.350 1290.934, 1827.100 1297.449, 1820.500 1301.266 C 1813.900 1305.083, 1807.037 1309.060, 1805.250 1310.103 C 1799.353 1313.545, 1794.573 1316.255, 1789 1319.314 C 1772.366 1328.446, 1765.627 1334.249, 1761.637 1342.878 L 1759.500 1347.500 1759.243 1628.971 C 1758.959 1939.962, 1758.471 1916.187, 1765.276 1922.783 C 1771.897 1929.200, 1769.470 1929.030, 1853.409 1928.955 C 1931.099 1928.886, 1943.036 1928.411, 1952.745 1924.998 C 1965.138 1920.643, 1971.185 1910.687, 1972.774 1892.021 C 1973.173 1887.335, 1973.443 1747.150, 1973.374 1580.500 C 1973.261 1307.848, 1973.090 1276.766, 1971.662 1270.172 C 1968.731 1256.637, 1963.587 1248.187, 1955.337 1243.352 C 1948.760 1239.497, 1936.218 1239.046, 1926.500 1242.313 M 1701.973 1371.433 C 1697.094 1372.676, 1690.779 1376.026, 1663.500 1391.836 C 1653.600 1397.574, 1635.489 1408.060, 1623.254 1415.138 C 1586.242 1436.550, 1581.750 1439.826, 1574.816 1450.458 C 1572.679 1453.736, 1569.934 1459.586, 1568.715 1463.458 L 1566.500 1470.500 1566.500 1687 C 1566.500 1892.670, 1566.590 1903.791, 1568.300 1909.327 C 1570.654 1916.946, 1576.401 1923.259, 1583.343 1925.852 C 1588.167 1927.654, 1592.120 1927.799, 1644.500 1928.100 C 1706.762 1928.457, 1705.018 1928.624, 1711.121 1921.753 C 1717.424 1914.656, 1717.012 1934.016, 1716.959 1647.556 C 1716.929 1484.700, 1716.549 1384.619, 1715.949 1381.500 C 1714.175 1372.281, 1710.116 1369.357, 1701.973 1371.433 M 119 2212.376 C 105.101 2216.580, 80.914 2227.681, 68.231 2235.678 C 65.332 2237.505, 62.762 2239, 62.518 2239 C 61.746 2239, 34.762 2256.059, 28.358 2260.596 C 15.727 2269.544, 6.470 2282.827, 2.290 2298 C 0.589 2304.177, 0.500 2318.828, 0.500 2592.500 C 0.500 2867.936, 0.579 2880.704, 2.308 2885.186 C 4.300 2890.348, 10.054 2896.160, 15.372 2898.382 C 20.154 2900.380, 38.039 2904.288, 77.500 2911.957 C 113.825 2919.016, 167.703 2922.575, 201.030 2920.116 C 209.572 2919.486, 217.447 2918.808, 218.530 2918.611 C 219.614 2918.414, 223.200 2917.944, 226.500 2917.567 C 272.533 2912.307, 319.865 2893.646, 355.341 2866.770 C 366.179 2858.560, 384.505 2840.654, 393.487 2829.500 C 437.762 2774.518, 455.635 2697.343, 443.973 2611.500 C 432.780 2529.105, 399.221 2473.405, 342.773 2443.529 C 322.189 2432.634, 302.491 2425.932, 279 2421.830 C 268.508 2419.997, 262.484 2419.635, 241.500 2419.573 C 214.582 2419.494, 204.525 2420.113, 185.020 2423.050 C 149.626 2428.380, 149.576 2428.385, 146.442 2426.886 C 141.083 2424.321, 141.097 2424.584, 140.785 2317.078 C 140.519 2225.177, 140.381 2218.282, 138.740 2215.280 C 135.480 2209.316, 131.198 2208.686, 119 2212.376 M 1700.239 2211.024 C 1688.416 2213.453, 1648.276 2233.795, 1623.515 2249.907 C 1606.979 2260.667, 1593.829 2272.028, 1587.844 2280.727 C 1586.211 2283.100, 1583.546 2287.884, 1581.920 2291.358 C 1576.274 2303.423, 1575.990 2306.761, 1576.082 2360.083 C 1576.152 2400.344, 1575.919 2409.252, 1574.721 2412.083 C 1571.660 2419.321, 1565.808 2421.575, 1552.572 2420.615 C 1530.770 2419.032, 1510.649 2418.800, 1495.961 2419.961 C 1421.823 2425.822, 1370.831 2448.355, 1332.941 2492 C 1323.895 2502.421, 1318.799 2509.498, 1310.839 2522.697 C 1288.464 2559.799, 1275.161 2598.945, 1271.145 2639.500 C 1269.654 2654.562, 1269.823 2686.307, 1271.479 2702 C 1278.678 2770.216, 1300.364 2820.971, 1337.765 2857.136 C 1368.561 2886.914, 1402.996 2903.739, 1455.182 2914.506 C 1494.826 2922.685, 1541.471 2923.668, 1591.500 2917.378 C 1612.404 2914.750, 1649.880 2907.924, 1667.500 2903.535 C 1668.600 2903.261, 1673.550 2902.105, 1678.500 2900.967 C 1702.799 2895.376, 1704.348 2894.818, 1709.728 2889.714 C 1711.503 2888.029, 1713.753 2884.367, 1714.728 2881.576 C 1716.410 2876.757, 1716.500 2859.929, 1716.500 2549.500 C 1716.500 2291.346, 1716.238 2221.639, 1715.254 2218.409 C 1713.113 2211.378, 1708.812 2209.263, 1700.239 2211.024 M 2435 2416.203 C 2398.871 2418.464, 2358.349 2429.777, 2333.267 2444.606 C 2315.736 2454.970, 2299.861 2469.947, 2288.240 2487.085 C 2279.885 2499.407, 2271.659 2519.729, 2267.835 2537.500 C 2265.777 2547.061, 2266.066 2580.678, 2268.286 2590 C 2274.605 2616.534, 2286.938 2639.439, 2304.653 2657.541 C 2316.598 2669.748, 2323.311 2674.955, 2339 2684.181 C 2345.554 2688.035, 2373.431 2702, 2374.571 2702 C 2374.802 2702, 2378.481 2703.622, 2382.746 2705.605 C 2387.011 2707.588, 2398.825 2712.790, 2409 2717.166 C 2432.975 2727.476, 2432.633 2727.322, 2445.500 2733.597 C 2458.612 2739.992, 2465.172 2744.807, 2469.638 2751.318 C 2477.759 2763.155, 2476.528 2777.635, 2466.449 2788.846 C 2454.578 2802.049, 2440.458 2806.061, 2405.540 2806.154 C 2374.223 2806.236, 2352.680 2802.649, 2317.500 2791.493 C 2293.651 2783.930, 2288.619 2782.761, 2279.334 2782.622 C 2272.501 2782.520, 2270.706 2782.841, 2268.334 2784.590 C 2262.764 2788.698, 2262.519 2790.107, 2262.282 2819.500 C 2262.161 2834.350, 2261.769 2851.485, 2261.410 2857.577 C 2260.651 2870.456, 2261.955 2876.570, 2267.126 2884.377 C 2274.145 2894.973, 2285.081 2900.620, 2310.707 2906.880 C 2361.177 2919.209, 2388.800 2922.656, 2429.486 2921.705 C 2462.701 2920.928, 2484.803 2917.301, 2513.275 2907.954 C 2556.474 2893.773, 2583.106 2873.196, 2597.401 2842.957 C 2610.421 2815.416, 2616.396 2789.361, 2616.312 2760.500 C 2616.239 2735.539, 2611.663 2716.020, 2600.824 2694.430 C 2588.764 2670.408, 2568.246 2649.601, 2541.500 2634.268 C 2534.003 2629.970, 2522.728 2624.973, 2503.500 2617.429 C 2496.900 2614.839, 2489.612 2611.883, 2487.305 2610.860 C 2484.998 2609.837, 2482.873 2609, 2482.584 2609 C 2482.296 2609, 2479.458 2607.841, 2476.280 2606.425 C 2473.101 2605.009, 2469.150 2603.260, 2467.500 2602.537 C 2456.052 2597.524, 2433.733 2587.131, 2430 2585.074 C 2424.078 2581.811, 2415.456 2572.956, 2414.157 2568.802 C 2411.435 2560.094, 2412.597 2551.230, 2417.415 2543.949 C 2424.208 2533.684, 2441.872 2529.767, 2478 2530.515 C 2506.033 2531.095, 2527.836 2534.159, 2557.500 2541.685 C 2565.200 2543.638, 2573.613 2545.688, 2576.195 2546.240 C 2585.854 2548.304, 2592.489 2544.739, 2595.324 2535.960 C 2599.235 2523.849, 2600.992 2487.733, 2598.484 2471 C 2595.818 2453.216, 2594.479 2449.059, 2589.532 2443.206 C 2585.704 2438.677, 2581.722 2436.857, 2565.500 2432.224 C 2519.059 2418.961, 2475.798 2413.650, 2435 2416.203 M 3267.931 2415.403 C 3267.674 2415.659, 3263.422 2415.963, 3258.482 2416.078 C 3224.374 2416.868, 3182.486 2426.081, 3156.685 2438.468 C 3143.101 2444.990, 3134.492 2450.373, 3121.768 2460.302 C 3079.021 2493.661, 3049.260 2548.961, 3039.949 2612.336 C 3035.072 2645.525, 3035.379 2699.768, 3040.626 2732 C 3048.580 2780.863, 3069.828 2825.005, 3100.623 2856.639 C 3134.633 2891.576, 3180.334 2913.265, 3233.332 2919.620 C 3249.082 2921.509, 3283.646 2921.748, 3299.500 2920.078 C 3324.455 2917.450, 3354.881 2909.245, 3375.317 2899.634 C 3395.391 2890.193, 3411.848 2878.758, 3428.959 2862.361 C 3453.706 2838.648, 3471.593 2809.659, 3483.840 2773.419 C 3490.550 2753.561, 3493.176 2742.121, 3497.136 2715.500 C 3498.760 2704.585, 3499.288 2695.441, 3499.533 2674 C 3499.874 2644.265, 3499.289 2635.499, 3495.435 2612.540 C 3483.759 2542.989, 3457.748 2493.725, 3416.500 2463.041 C 3385.916 2440.289, 3356.607 2427.053, 3321.500 2420.139 C 3308.163 2417.512, 3269.261 2414.073, 3267.931 2415.403 M 1984.500 2417.108 C 1971.863 2418.341, 1953.194 2421.649, 1942 2424.638 C 1936.775 2426.034, 1930.846 2427.581, 1928.825 2428.076 C 1917.444 2430.864, 1889.942 2443.330, 1876.631 2451.733 C 1861.494 2461.288, 1841.568 2479.334, 1830.512 2493.500 C 1805.302 2525.802, 1789.578 2566.599, 1780.601 2623 C 1778.279 2637.594, 1776.907 2682.869, 1778.389 2696.043 C 1778.665 2698.494, 1779.159 2703.425, 1779.489 2707 C 1780.410 2717.008, 1784.778 2742.365, 1787.509 2753.564 C 1794.992 2784.238, 1806.885 2810.231, 1824.312 2834 C 1832.581 2845.278, 1849.343 2862.234, 1860.500 2870.605 C 1869.087 2877.048, 1882.386 2886, 1883.369 2886 C 1883.700 2886, 1886.114 2887.297, 1888.735 2888.883 C 1899.322 2895.287, 1922.015 2904.273, 1940.500 2909.380 C 1997.119 2925.023, 2054.820 2925.517, 2126.639 2910.972 C 2174.068 2901.367, 2181.565 2895.473, 2184.472 2865.500 C 2185.518 2854.713, 2185.811 2816.736, 2184.929 2806.221 C 2183.826 2793.060, 2181.553 2787.547, 2176.332 2785.365 C 2171.264 2783.248, 2166.676 2783.870, 2138.500 2790.501 C 2120.802 2794.665, 2095.452 2799.690, 2079.920 2802.111 C 2060.762 2805.098, 2029.587 2805.327, 2014.500 2802.593 C 1992.762 2798.653, 1972.438 2790.468, 1959 2780.242 C 1940.724 2766.334, 1922.860 2739.064, 1922.590 2724.663 C 1922.486 2719.059, 1924.528 2716.743, 1931.148 2714.960 C 1933.865 2714.229, 1975.491 2713.930, 2063.804 2714.008 C 2141.941 2714.077, 2193.711 2713.751, 2195.584 2713.178 C 2204.923 2710.322, 2211.306 2702.283, 2212.984 2691.268 C 2213.467 2688.096, 2214.154 2673.350, 2214.510 2658.500 C 2215.238 2628.170, 2213.987 2610.068, 2209.464 2585.500 C 2198.647 2526.736, 2177.278 2487.667, 2138.958 2456.589 C 2133.009 2451.765, 2119.598 2443.489, 2110.375 2438.951 C 2074.479 2421.289, 2026.674 2412.994, 1984.500 2417.108 M 2873.500 2416.650 C 2812.082 2420.965, 2763.591 2441.130, 2728.912 2476.777 C 2715.381 2490.686, 2705.053 2503.621, 2699.593 2513.500 C 2698.681 2515.150, 2696.572 2518.750, 2694.907 2521.500 C 2683.802 2539.842, 2672.938 2568.394, 2667.511 2593.500 C 2662.329 2617.476, 2661.498 2627.137, 2661.531 2663 C 2661.567 2702.291, 2663.407 2722.312, 2669.707 2752 C 2687.447 2835.601, 2750.006 2897.210, 2836.093 2915.861 C 2866.610 2922.473, 2911.058 2923.076, 2950 2917.407 C 2987.251 2911.984, 3032.567 2895.830, 3036.840 2886.451 C 3040.049 2879.409, 3037.325 2872.531, 3022.015 2849.021 C 3016.561 2840.647, 3009.405 2827.784, 3005.043 2818.513 C 3000.894 2809.697, 2996.465 2800.823, 2995.200 2798.792 C 2990.176 2790.731, 2983.341 2789.363, 2966.500 2793.049 C 2941.703 2798.476, 2930.138 2800.171, 2914.154 2800.722 C 2896.683 2801.325, 2888.540 2800.463, 2877 2796.788 C 2863.676 2792.546, 2852.753 2785.899, 2841.790 2775.362 C 2834.296 2768.159, 2832.644 2766.207, 2827.834 2758.874 C 2817.084 2742.483, 2809.495 2720.565, 2805.890 2695.500 C 2804.484 2685.725, 2804.073 2653.073, 2805.203 2640.976 C 2806.798 2623.906, 2813.605 2598.790, 2820.239 2585.500 C 2827.240 2571.473, 2836.766 2559.753, 2846.822 2552.796 C 2853.831 2547.946, 2868.797 2541.346, 2879 2538.605 C 2904.817 2531.671, 2929.042 2533.452, 2972 2545.441 C 2982.808 2548.458, 2991.863 2546.823, 2995.901 2541.127 C 2996.925 2539.682, 2998.466 2536.475, 2999.325 2534 C 3001.099 2528.886, 3021.593 2488.526, 3033.805 2466.097 C 3035.073 2463.768, 3036.352 2459.756, 3036.648 2457.182 C 3037.365 2450.943, 3034.410 2446.541, 3026.976 2442.770 C 3015.166 2436.780, 2977.073 2425.727, 2954 2421.595 C 2945.435 2420.061, 2944.054 2419.855, 2929.500 2417.948 C 2921.447 2416.892, 2882.803 2415.997, 2873.500 2416.650 M 981 2417.696 C 967.892 2418.102, 939.963 2420.070, 926.160 2421.559 C 888.981 2425.572, 870.089 2433.491, 860.843 2448.941 C 854.622 2459.336, 852.395 2471.011, 853.394 2488 C 854.490 2506.664, 859.920 2535.675, 863.171 2540.241 C 866.709 2545.208, 873.960 2546.382, 883.568 2543.543 C 887.584 2542.356, 914.499 2538.328, 937 2535.547 C 970.121 2531.454, 988.093 2531.232, 1011 2534.634 C 1023.120 2536.434, 1039.159 2542.211, 1048.690 2548.209 C 1062.138 2556.671, 1072.251 2571.971, 1075.651 2589.001 C 1077.144 2596.481, 1077.176 2597.862, 1075.912 2600.501 C 1073.862 2604.784, 1069.983 2605.743, 1058.795 2604.732 C 1044.630 2603.451, 1004.922 2603.536, 992 2604.875 C 950.769 2609.147, 914.200 2617.715, 891.500 2628.420 C 874.423 2636.474, 864.057 2643.767, 851.637 2656.462 C 834.160 2674.328, 819.979 2701.567, 813.844 2729.059 C 811.821 2738.124, 811.513 2742.202, 811.507 2760 C 811.499 2782.807, 812.495 2789.595, 818.497 2807.639 C 826.813 2832.635, 842.788 2857.091, 861.574 2873.579 C 889.187 2897.815, 917.731 2910.007, 964.500 2917.540 C 999.750 2923.218, 1050.638 2923.405, 1090.500 2918.004 C 1094.350 2917.482, 1099.525 2916.794, 1102 2916.476 C 1116.355 2914.628, 1145.185 2909.026, 1176.500 2902 C 1198.197 2897.132, 1207.425 2891.523, 1211.054 2881 C 1212.887 2875.683, 1212.942 2870.552, 1212.693 2726.500 C 1212.551 2644.550, 1212.152 2576.375, 1211.804 2575 C 1211.457 2573.625, 1210.865 2569.800, 1210.488 2566.500 C 1208.849 2552.138, 1201.164 2527.218, 1193.959 2512.899 C 1181.043 2487.227, 1157.680 2462.964, 1131.589 2448.122 C 1108.963 2435.253, 1078.702 2425.474, 1047.610 2420.985 C 1035.140 2419.184, 1001.037 2416.893, 992.500 2417.281 C 990.300 2417.382, 985.125 2417.568, 981 2417.696 M 530.903 2425.145 C 525.639 2425.884, 521.313 2427.892, 518.653 2430.831 C 513.893 2436.091, 514.090 2425.960, 514.049 2667 C 514.024 2819.851, 514.347 2894.709, 515.044 2897.219 C 516.360 2901.958, 520.239 2906.571, 524.910 2908.954 C 533.249 2913.208, 557.452 2915.870, 584 2915.452 C 626.804 2914.778, 638.308 2913.002, 646.489 2905.801 C 655.150 2898.177, 654.476 2909.059, 654.685 2773.500 C 654.876 2649.412, 655.031 2644.292, 659.099 2627.500 C 667.199 2594.063, 688.060 2565.060, 713.067 2552.466 C 731.824 2543.021, 742.580 2540.811, 771.561 2540.452 C 784.445 2540.293, 795.443 2539.689, 798 2539 C 803.393 2537.548, 808.402 2532.718, 809.975 2527.453 C 812.013 2520.634, 812.931 2499.562, 812.493 2469.667 C 812.084 2441.770, 811.992 2440.662, 809.659 2435.566 C 806.063 2427.712, 802.512 2426.337, 783.500 2425.435 C 741.133 2423.425, 723.611 2425.065, 703.343 2432.935 C 690.641 2437.867, 683.986 2442.441, 654.013 2466.838 L 642.526 2476.187 640.770 2470.344 C 639.805 2467.130, 638.328 2460.597, 637.490 2455.826 C 636.651 2451.055, 635.292 2445.244, 634.469 2442.913 C 632.170 2436.396, 626.427 2430.094, 620.070 2427.112 L 614.500 2424.500 575 2424.500 C 553.275 2424.500, 533.431 2424.790, 530.903 2425.145 M 1994 2527.687 C 1985.081 2529.164, 1969.420 2535.902, 1960 2542.314 C 1949.974 2549.139, 1936.443 2563.850, 1930.750 2574.115 C 1926.788 2581.259, 1923 2592.663, 1923 2597.449 C 1923 2604.288, 1925.264 2606.263, 1934.025 2607.067 C 1938.032 2607.434, 1970.740 2607.822, 2006.712 2607.929 C 2071.766 2608.122, 2072.138 2608.112, 2076.551 2605.975 C 2083.298 2602.709, 2083.961 2598.431, 2079.871 2584.554 C 2075.874 2570.993, 2065.405 2553.216, 2056.851 2545.463 C 2042.915 2532.831, 2026.968 2526.898, 2007.590 2527.136 C 2001.491 2527.211, 1995.375 2527.459, 1994 2527.687 M 3256.481 2532.240 C 3232.038 2535.306, 3210.470 2550.375, 3197.610 2573.370 C 3189.845 2587.255, 3181.534 2618.511, 3178.954 2643.530 C 3177.767 2655.052, 3178.116 2693.237, 3179.481 2701 C 3179.819 2702.925, 3180.786 2708.775, 3181.630 2714 C 3183.592 2726.151, 3188.352 2745.232, 3191.521 2753.653 C 3201.100 2779.100, 3219.644 2796.006, 3244.773 2802.199 C 3255.112 2804.747, 3274.946 2805.206, 3284.500 2803.118 C 3299.671 2799.801, 3312.470 2792.569, 3322.868 2781.435 C 3337.531 2765.733, 3348.139 2740.715, 3352.454 2711.656 C 3354.333 2698.999, 3354.703 2643.248, 3353.002 2629 C 3349.682 2601.198, 3341.054 2576.319, 3329.592 2561.503 C 3324.088 2554.388, 3322.610 2552.917, 3315.500 2547.476 C 3299.274 2535.058, 3277.936 2529.550, 3256.481 2532.240 M 1505.443 2534.992 C 1466.910 2541.561, 1439.441 2563.502, 1427.814 2597 C 1424.769 2605.774, 1420.311 2623.690, 1418.609 2634 C 1407.159 2703.351, 1423.851 2759.142, 1463.902 2785.382 C 1475.280 2792.837, 1482.288 2796.021, 1495.047 2799.530 C 1511.672 2804.103, 1544.526 2804.003, 1560.259 2799.330 C 1567.671 2797.129, 1573.371 2791.227, 1574.870 2784.201 C 1576.401 2777.021, 1576.473 2555.304, 1574.946 2548.185 C 1573.458 2541.247, 1570.062 2538.320, 1561.428 2536.532 C 1542.334 2532.580, 1522.754 2532.041, 1505.443 2534.992 M 183.500 2538.875 C 148.363 2545.334, 143.966 2548.138, 142.075 2565.288 C 140.813 2576.733, 140.696 2784.159, 141.949 2788.811 C 144.403 2797.923, 150.594 2801.480, 166.912 2803.153 C 183.634 2804.867, 205.249 2802.959, 219.500 2798.511 C 239.702 2792.205, 262.883 2775.037, 275.760 2756.846 C 281.838 2748.259, 290.146 2730.667, 293.869 2718.500 C 305.971 2678.946, 305.372 2632.664, 292.302 2597.500 C 280.505 2565.760, 263.608 2549.433, 233.162 2540.359 C 221.284 2536.818, 198.410 2536.135, 183.500 2538.875 M 1000.500 2704.037 C 982.947 2706.776, 966.140 2713.955, 957.831 2722.264 C 948.764 2731.331, 945.485 2741.147, 946.240 2756.959 C 946.667 2765.885, 947.203 2768.512, 949.743 2774.105 C 956.472 2788.922, 970.938 2798.874, 992.563 2803.563 C 999.275 2805.019, 1005.569 2805.258, 1033.347 2805.115 C 1070.553 2804.923, 1071.880 2804.704, 1074.786 2798.286 C 1076.315 2794.908, 1076.500 2790.078, 1076.500 2753.458 C 1076.500 2715.389, 1076.368 2712.213, 1074.672 2709.624 C 1071.364 2704.572, 1068.857 2704.178, 1036.444 2703.618 C 1019.832 2703.331, 1003.829 2703.518, 1000.500 2704.037" stroke="none" fill="#cc0c2c" fill-rule="evenodd"/></svg>