<?xml version="1.0" standalone="no"?>
<!DOCTYPE svg PUBLIC "-//W3C//DTD SVG 20010904//EN"
 "http://www.w3.org/TR/2001/REC-SVG-20010904/DTD/svg10.dtd">
<svg version="1.0" xmlns="http://www.w3.org/2000/svg"
 width="700.000000pt" height="467.000000pt" viewBox="0 0 700.000000 467.000000"
 preserveAspectRatio="xMidYMid meet">

<g transform="translate(0.000000,467.000000) scale(0.100000,-0.100000)"
fill="#000000" stroke="none">
<path d="M0 2335 l0 -2335 3500 0 3500 0 0 2335 0 2335 -3500 0 -3500 0 0
-2335z m3603 1712 c45 -29 95 -62 111 -73 16 -10 39 -26 51 -34 13 -8 49 -30
81 -49 33 -19 80 -49 105 -68 26 -18 49 -33 53 -33 8 0 100 -64 104 -72 2 -5
8 -8 13 -8 5 0 46 -24 92 -53 178 -116 228 -147 233 -147 3 0 18 -9 32 -20 29
-22 163 -110 168 -110 1 0 31 -19 67 -42 35 -24 89 -59 120 -78 32 -19 99 -62
150 -95 51 -33 125 -80 163 -104 72 -45 138 -88 292 -190 51 -33 95 -61 98
-61 2 0 26 -15 53 -32 27 -18 106 -69 175 -113 70 -44 186 -119 259 -166 72
-47 158 -101 189 -120 32 -19 58 -40 58 -46 0 -7 -14 -20 -30 -28 -17 -9 -81
-49 -143 -89 -61 -40 -175 -113 -252 -161 -77 -48 -172 -110 -212 -136 -39
-27 -74 -49 -77 -49 -3 0 -28 -16 -55 -35 -26 -19 -51 -35 -53 -35 -3 0 -35
-19 -70 -42 -76 -50 -264 -171 -361 -232 -37 -23 -64 -46 -60 -51 5 -4 3 -5
-4 -2 -9 6 -122 -59 -159 -92 -6 -5 -36 -23 -65 -41 -30 -17 -101 -62 -159
-100 -58 -37 -127 -82 -155 -99 -27 -17 -77 -49 -110 -71 -33 -21 -80 -50
-105 -64 -25 -14 -122 -76 -217 -138 -94 -62 -193 -126 -219 -143 -26 -16 -59
-38 -73 -47 -14 -10 -42 -27 -61 -38 -19 -12 -53 -32 -75 -45 -22 -14 -45 -25
-51 -25 -6 0 -45 21 -86 47 -41 27 -82 53 -90 58 -9 6 -72 46 -140 89 -214
138 -281 181 -337 217 -30 19 -103 66 -162 104 -60 39 -134 86 -166 105 -32
19 -92 58 -135 85 -42 28 -119 77 -170 109 -101 64 -219 140 -313 202 -33 21
-65 41 -70 44 -6 3 -49 30 -95 61 -47 30 -105 68 -130 83 -49 30 -213 134
-380 242 -58 37 -121 77 -140 89 -36 22 -74 47 -239 154 -52 34 -98 61 -103
61 -4 0 -8 4 -8 9 0 10 134 101 149 101 5 0 11 3 13 8 3 7 75 56 113 77 11 6
58 36 105 66 86 56 341 220 417 268 23 14 97 62 165 105 68 43 139 89 158 101
19 13 80 52 135 87 55 35 163 104 240 152 138 88 168 106 254 162 24 16 51 34
60 39 9 6 30 19 46 30 138 88 198 127 250 160 33 20 85 54 117 74 217 139 292
187 301 190 6 2 16 8 22 12 5 5 44 31 85 57 41 26 86 56 100 65 14 9 31 16 38
16 7 1 50 -23 95 -52z"/>
<path d="M3345 3494 c-106 -21 -140 -29 -204 -50 -210 -68 -458 -245 -566
-405 -17 -24 -38 -53 -47 -63 -10 -11 -18 -23 -18 -27 0 -5 -16 -36 -36 -69
-20 -34 -33 -64 -31 -67 3 -3 48 1 99 8 126 18 451 15 611 -5 358 -45 627
-125 932 -276 202 -100 395 -219 502 -309 50 -42 74 -57 80 -48 4 6 7 73 7
147 -1 329 -114 601 -344 830 -176 176 -370 279 -614 325 -71 14 -317 19 -371
9z m539 -776 c17 -16 8 -48 -13 -48 -9 0 -22 9 -29 20 -10 17 -10 20 3 20 8 0
15 5 15 10 0 13 8 13 24 -2z"/>
<path d="M2634 2793 c4 -5 13 -8 19 -8 7 0 13 -8 15 -18 3 -15 -2 -18 -25 -15
-20 2 -27 8 -25 21 2 9 -2 17 -8 17 -13 0 -13 -87 0 -95 6 -4 10 5 10 19 0 32
23 34 44 4 9 -12 19 -18 23 -14 4 4 1 11 -7 16 -13 8 -13 13 -1 31 12 20 11
24 -5 36 -19 14 -53 19 -40 6z"/>
<path d="M2750 2750 l0 -51 36 3 c27 2 39 9 45 24 12 34 -11 68 -49 72 l-32 3
0 -51z m60 26 c6 -8 10 -25 8 -38 -4 -33 -52 -33 -56 0 -7 47 21 69 48 38z"/>
<path d="M2897 2793 c-4 -3 -7 -26 -7 -50 l0 -43 48 2 c43 1 44 2 10 5 -28 3
-38 9 -38 22 0 14 6 17 30 13 18 -3 30 0 30 7 0 6 -13 11 -30 11 -46 0 -39 28
8 33 l37 4 -41 1 c-22 1 -44 -1 -47 -5z"/>
<path d="M3033 2738 c-1 -51 -1 -52 6 -13 l7 40 12 -28 c7 -16 12 -33 12 -38
0 -22 18 -6 24 21 3 17 10 30 17 30 7 0 8 -11 4 -31 -5 -22 -4 -29 4 -25 6 4
11 25 11 47 0 48 -20 52 -39 7 -13 -34 -15 -33 -25 15 -11 48 -32 32 -33 -25z"/>
<path d="M2471 2761 c-24 -44 -3 -86 40 -79 32 4 45 31 33 65 -12 36 -57 44
-73 14z m61 -16 c10 -21 9 -29 -5 -43 -31 -31 -75 19 -47 53 19 22 39 18 52
-10z"/>
<path d="M3277 2753 c-3 -5 -7 -26 -9 -48 -3 -38 -2 -40 27 -42 18 -1 21 1 9
3 -18 4 -22 12 -21 40 1 31 4 34 31 34 34 0 32 5 -6 14 -15 3 -29 3 -31 -1z"/>
<path d="M3492 2687 c-15 -41 -16 -86 -1 -49 6 17 14 22 29 17 24 -8 53 7 56
29 1 8 -7 18 -19 21 -12 4 -29 8 -37 11 -11 3 -20 -7 -28 -29z m68 -1 c0 -16
-27 -29 -41 -20 -19 11 -9 34 16 34 15 0 25 -6 25 -14z"/>
<path d="M3308 2703 c7 -3 16 -2 19 1 4 3 -2 6 -13 5 -11 0 -14 -3 -6 -6z"/>
<path d="M3634 2663 c-3 -10 -10 -28 -15 -41 -11 -28 -11 -32 0 -32 5 0 11 10
14 22 5 18 8 19 21 8 9 -7 16 -21 16 -31 0 -10 5 -21 11 -25 9 -5 10 1 5 20
-5 19 -2 28 9 32 24 10 18 43 -11 54 -35 14 -44 13 -50 -7z m52 -7 c27 -20 6
-43 -25 -27 -22 12 -26 23 -14 34 9 10 17 9 39 -7z"/>
<path d="M2600 2659 c-120 -11 -219 -29 -226 -40 -14 -24 -34 -194 -34 -296 0
-561 405 -1039 970 -1144 102 -19 320 -17 418 5 249 53 450 164 619 339 100
104 155 182 217 312 66 136 66 134 0 194 -208 190 -586 402 -899 504 -330 108
-744 157 -1065 126z m-22 -99 c12 0 13 -3 5 -11 -6 -6 -9 -17 -7 -23 2 -6 -7
-12 -21 -12 -14 -1 -25 2 -25 6 0 5 -3 15 -6 24 -4 11 -1 16 10 16 9 0 16 6
17 13 0 10 2 10 6 0 2 -7 12 -13 21 -13z m1265 -177 c-3 -7 -11 -13 -18 -13
-17 0 -26 25 -13 38 13 13 38 -7 31 -25z m-757 -103 c0 -12 -8 -17 -22 -16
-12 0 -20 4 -18 8 2 4 -1 10 -6 13 -7 5 -5 11 6 20 20 14 40 2 40 -25z m441
-143 c0 -21 -35 -23 -43 -3 -8 21 17 46 32 32 6 -6 11 -19 11 -29z m-745 -12
c0 -5 -5 -11 -11 -13 -6 -2 -11 4 -11 13 0 9 5 15 11 13 6 -2 11 -8 11 -13z
m-97 -73 c-3 -8 -5 -17 -5 -20 0 -4 -11 -8 -25 -8 -14 -1 -22 2 -19 8 3 5 0
15 -6 23 -10 12 -9 15 4 15 9 0 16 5 16 10 0 6 8 5 20 -2 11 -7 18 -19 15 -26z
m973 10 c16 -11 3 -47 -18 -47 -21 0 -34 36 -18 47 7 4 15 8 18 8 3 0 11 -4
18 -8z m-250 -25 c2 -12 -3 -17 -17 -17 -12 0 -21 6 -21 13 0 31 32 34 38 4z
m-494 -80 c16 -15 7 -42 -14 -42 -20 0 -30 26 -16 42 14 16 15 16 30 0z m546
3 c0 -5 -7 -10 -15 -10 -8 0 -15 5 -15 10 0 6 7 10 15 10 8 0 15 -4 15 -10z
m-930 -15 c0 -8 -7 -15 -15 -15 -8 0 -15 7 -15 15 0 8 7 15 15 15 8 0 15 -7
15 -15z m1818 -5 c12 0 13 -3 5 -11 -6 -6 -9 -17 -7 -24 8 -20 -40 -12 -49 9
-5 13 -2 23 10 32 10 7 20 8 21 3 2 -5 11 -9 20 -9z m155 -36 c-3 -8 -11 -14
-18 -14 -18 0 -26 25 -12 39 14 14 38 -5 30 -25z m-1615 -85 c-6 -4 -8 -11 -5
-15 3 -5 -6 -10 -19 -10 -13 -1 -22 2 -19 6 3 5 1 11 -5 15 -5 3 -10 11 -10
16 0 6 4 8 9 4 5 -3 12 -1 16 5 4 6 13 5 25 -2 12 -8 15 -15 8 -19z m645 -19
c-3 -11 -14 -17 -29 -17 -13 0 -21 3 -19 8 3 4 1 10 -4 14 -6 3 -3 13 7 23 15
15 19 15 33 3 9 -7 14 -21 12 -31z m851 37 c16 -15 7 -42 -14 -42 -20 0 -30
26 -16 42 14 16 15 16 30 0z m-70 -90 c16 -15 7 -42 -14 -42 -20 0 -30 26 -16
42 14 16 15 16 30 0z m-1264 -7 c0 -5 6 -10 14 -10 11 0 12 -5 3 -22 -11 -25
-62 -37 -53 -13 2 7 -1 18 -7 24 -8 8 -7 11 6 11 9 0 17 5 17 10 0 6 5 10 10
10 6 0 10 -4 10 -10z m1053 -36 c9 -9 -4 -34 -18 -34 -17 0 -27 27 -12 34 17
7 23 7 30 0z m-320 -30 c-3 -8 -11 -14 -18 -14 -17 0 -27 28 -12 33 20 7 36
-4 30 -19z m437 -10 c0 -8 -7 -14 -15 -14 -15 0 -21 21 -9 33 10 9 24 -2 24
-19z m-247 -20 c-3 -8 -11 -14 -18 -14 -17 0 -27 28 -12 33 20 7 36 -4 30 -19z
m139 -76 c-5 -21 -34 -20 -43 2 -3 8 -1 19 5 26 16 16 45 -4 38 -28z m-232
-16 c-5 -2 -10 -9 -10 -16 0 -6 -9 -12 -20 -13 -11 -1 -18 2 -15 7 3 5 0 12
-5 15 -7 5 -5 11 6 20 14 10 22 10 36 1 10 -6 14 -12 8 -14z m230 -93 c0 -12
-29 -24 -37 -16 -3 4 -3 13 0 21 6 16 37 11 37 -5z m-590 -39 c0 -5 -4 -10
-10 -10 -5 0 -10 5 -10 10 0 6 5 10 10 10 6 0 10 -4 10 -10z"/>
<path d="M3764 2605 c-31 -48 15 -101 62 -70 28 18 32 56 8 79 -23 23 -51 20
-70 -9z m64 3 c17 -17 15 -42 -6 -61 -15 -14 -21 -14 -34 -4 -24 18 -27 40
-10 60 18 20 33 22 50 5z"/>
<path d="M3901 2556 c-31 -38 20 -114 56 -84 18 14 16 35 -3 42 -12 4 -14 1
-9 -14 8 -24 -16 -28 -35 -5 -10 12 -10 21 -2 40 13 29 46 33 61 8 5 -10 12
-15 16 -12 10 11 -25 39 -49 39 -13 0 -29 -6 -35 -14z"/>
<path d="M4038 2498 c-29 -44 -39 -68 -29 -68 5 0 13 9 16 21 9 28 28 19 42
-22 11 -33 12 -33 12 -6 1 15 5 27 11 27 5 0 14 9 20 20 9 16 6 22 -19 35 -38
19 -36 19 -53 -7z m62 -23 c0 -17 -36 -20 -45 -5 -4 6 -4 18 -1 26 4 12 10 13
26 4 11 -6 20 -17 20 -25z"/>
<path d="M4173 2447 c-4 -7 -15 -27 -24 -45 -17 -32 -17 -32 11 -47 38 -20 53
-19 17 1 -46 25 -25 48 28 29 14 -5 12 0 -8 16 -21 16 -25 24 -16 30 7 4 21 3
32 -3 31 -16 28 -4 -3 14 -22 13 -31 14 -37 5z"/>
<path d="M4300 2365 c-11 -13 -9 -20 9 -38 27 -29 27 -47 0 -47 -12 0 -23 8
-26 20 -3 11 -10 20 -15 20 -20 0 20 -45 42 -48 33 -5 42 17 19 49 -10 15 -19
30 -19 33 0 14 30 5 39 -11 5 -10 12 -15 16 -11 6 6 -33 48 -46 48 -3 0 -12
-7 -19 -15z"/>
<path d="M4415 2280 c-3 -6 3 -23 14 -39 26 -36 26 -41 0 -41 -12 0 -23 8 -26
20 -5 20 -23 28 -23 11 0 -16 51 -50 66 -44 18 7 18 37 -1 53 -8 7 -15 19 -15
26 0 19 29 18 36 -1 4 -8 11 -15 17 -15 5 0 2 9 -8 20 -19 21 -50 26 -60 10z"/>
<path d="M4514 2175 c-16 -24 -12 -65 7 -65 6 0 5 8 -1 21 -9 16 -8 25 6 40
15 16 54 27 54 15 0 -2 3 -11 6 -20 4 -9 -5 -25 -22 -41 -15 -14 -22 -25 -16
-25 16 0 52 41 52 60 0 43 -60 54 -86 15z"/>
</g>
</svg>
