<svg xmlns="http://www.w3.org/2000/svg" width="4096" height="4096" viewBox="0 0 4096 4096" version="1.1"><path d="M 587 2080.334 C 587 2188.317, 586.700 2476.542, 586.334 2720.834 L 585.667 3165 722.710 3165 L 859.752 3165 860.405 2903.750 C 860.763 2760.063, 861.156 2471.837, 861.278 2263.250 L 861.500 1884 724.250 1884 L 587 1884 587 2080.334 M 1110 2050.500 L 1110 2216 1044.500 2216 L 979 2216 979 2305.500 L 979 2395 1044 2395 L 1109 2395 1109.004 2692.250 C 1109.007 2886.558, 1109.365 2994.348, 1110.039 3003.500 C 1113.093 3044.979, 1122.233 3075.458, 1139.272 3100.985 C 1146.403 3111.667, 1163.424 3128.229, 1175.512 3136.248 C 1206.397 3156.736, 1246.587 3168.745, 1304.215 3174.706 C 1333.836 3177.769, 1483.181 3176.849, 1516.750 3173.396 L 1522 3172.856 1522 3078.428 L 1522 2984 1519.129 2984 C 1517.550 2984, 1509.563 2984.766, 1501.379 2985.701 C 1490.999 2986.888, 1479.092 2987.376, 1462 2987.315 C 1414.930 2987.145, 1389.953 2981.592, 1376.718 2968.351 C 1370.959 2962.590, 1367.577 2955.992, 1365.249 2945.976 C 1363.618 2938.958, 1363.529 2922.134, 1363.799 2671.500 C 1363.957 2524.650, 1364.335 2402.363, 1364.637 2399.750 L 1365.188 2395 1444.094 2395 L 1523 2395 1523 2305.500 L 1523 2216 1444 2216 L 1365 2216 1365 2050.500 L 1365 1885 1237.500 1885 L 1110 1885 1110 2050.500 M 3079.659 1891.250 C 3073.894 1901.726, 2976 2088.042, 2976 2088.537 C 2976 2088.792, 3017.287 2088.985, 3067.750 2088.966 L 3159.500 2088.931 3248 1991.449 C 3296.675 1937.833, 3338.234 1891.949, 3340.354 1889.483 L 3344.208 1885 3213.653 1885 L 3083.098 1885 3079.659 1891.250 M 2012 2192.614 C 2008.975 2192.808, 1999.075 2193.441, 1990 2194.021 C 1871.793 2201.582, 1784.307 2234.540, 1725.351 2293.722 C 1674.033 2345.237, 1641.888 2419.616, 1630.690 2512.750 L 1629.337 2524 1752.449 2524 L 1875.560 2524 1877.377 2513.250 C 1879.720 2499.384, 1884.783 2481.854, 1889.816 2470.181 C 1895.779 2456.349, 1903.415 2444.827, 1913.946 2433.767 C 1937.083 2409.469, 1967.145 2396.816, 2011 2392.917 C 2025.759 2391.605, 2065.596 2392.203, 2082 2393.983 C 2133.918 2399.617, 2166.523 2415.196, 2184.957 2443.178 C 2195.824 2459.674, 2200.459 2476.873, 2200.403 2500.500 C 2200.371 2513.990, 2200.101 2516.306, 2197.719 2523.500 C 2194.477 2533.290, 2190.566 2539.694, 2183.158 2547.340 C 2170.239 2560.675, 2151.094 2569.885, 2125.949 2574.862 C 2120.202 2576, 2059.925 2585.067, 1992 2595.012 C 1924.075 2604.957, 1861.750 2614.436, 1853.500 2616.077 C 1780.714 2630.548, 1721.091 2660.144, 1678.132 2703.126 C 1635.510 2745.770, 1610.508 2799.115, 1601.326 2867 C 1599.020 2884.048, 1598.703 2941.498, 1600.827 2957.500 C 1611.599 3038.666, 1648.144 3099.692, 1711 3141.477 C 1723.945 3150.082, 1753.657 3165.148, 1768 3170.379 C 1808.751 3185.241, 1848.209 3191.979, 1894.500 3191.980 C 1976.897 3191.982, 2046.524 3174.272, 2107.092 3137.907 C 2134.984 3121.161, 2158.674 3102.318, 2187.225 3074.167 C 2199.049 3062.509, 2206.114 3056.220, 2206.396 3057.102 C 2206.642 3057.871, 2207.367 3063.675, 2208.006 3070 C 2210.706 3096.695, 2214.586 3115.124, 2224.115 3146.500 L 2230.188 3166.500 2299.844 3166.265 C 2338.155 3166.136, 2387.685 3165.745, 2409.911 3165.395 L 2450.321 3164.759 2449.531 3107.130 C 2449.097 3075.433, 2448.432 2911.350, 2448.054 2742.500 L 2447.366 2435.500 2445.168 2422.500 C 2440.610 2395.541, 2434.124 2374.994, 2423.071 2352.500 C 2381.695 2268.293, 2288.069 2214.925, 2150.231 2196.976 C 2123.397 2193.482, 2110.204 2192.798, 2064.500 2192.534 C 2038.650 2192.385, 2015.025 2192.421, 2012 2192.614 M 2646.685 2537.750 C 2646.260 2748.278, 2646.383 2864.342, 2647.042 2875.500 C 2651.591 2952.542, 2670.099 3014.872, 2703.162 3064.499 C 2714.726 3081.856, 2723.144 3092.195, 2736.974 3106.026 C 2783.818 3152.869, 2845.512 3180.277, 2925 3189.558 C 2943.524 3191.720, 2991.615 3192.584, 3010.530 3191.094 C 3060.740 3187.138, 3102.569 3176.091, 3142 3156.375 C 3171.560 3141.594, 3196.292 3123.780, 3219.526 3100.533 C 3237.638 3082.412, 3252.517 3063.177, 3267.755 3038.189 C 3269.536 3035.268, 3271.445 3033.157, 3271.997 3033.498 C 3272.651 3033.903, 3273 3057.196, 3273 3100.559 L 3273 3167 3395.500 3167 L 3518 3167 3518 2692 L 3518 2217 3390.517 2217 L 3263.033 2217 3262.747 2507.750 L 3262.461 2798.500 3260.189 2812.369 C 3255.249 2842.527, 3246.462 2869.037, 3234.397 2890.181 C 3205.603 2940.643, 3156.681 2972.133, 3094 2980.551 C 3081.779 2982.192, 3052.483 2982.425, 3039.500 2980.985 C 2957.958 2971.938, 2913.254 2926.723, 2903.512 2843.441 C 2902.194 2832.170, 2902 2791.172, 2902 2523.756 L 2902 2217 2774.666 2217 L 2647.331 2217 2646.685 2537.750 M 2197 2706.514 C 2171.225 2725.638, 2122.201 2740.292, 2045 2751.951 C 2017.896 2756.045, 1996.098 2760.203, 1976.249 2765.065 C 1911.418 2780.948, 1874.971 2808.050, 1860.645 2851.027 C 1856.032 2864.865, 1854.867 2872.587, 1854.311 2893 C 1853.700 2915.478, 1854.925 2925.216, 1860.370 2941.158 C 1874.523 2982.593, 1914.645 3010.225, 1965.500 3013.560 C 1994.300 3015.449, 2039.466 3007.685, 2070.771 2995.465 C 2142.751 2967.366, 2190.394 2913.979, 2199.494 2851.223 C 2200.804 2842.186, 2201.005 2829.764, 2200.774 2772.209 L 2200.500 2703.918 2197 2706.514" stroke="none" fill="#fbf304" fill-rule="evenodd"/><path d="M 866.500 243.690 C 680.759 255.940, 511.010 345.125, 394.833 491.500 C 330.495 572.561, 285.765 669.303, 265.583 771.039 C 261.597 791.132, 257.708 818.252, 255.407 842 C 253.986 856.663, 253.717 905.213, 252.991 1278 C 252.542 1508.725, 252.022 2042.425, 251.837 2464 C 251.515 3197.489, 251.578 3231.232, 253.306 3247.500 C 254.300 3256.850, 256.242 3272.150, 257.622 3281.500 C 283.042 3453.741, 376.655 3608.719, 519 3714.216 C 535.281 3726.283, 562.766 3744.216, 581.500 3754.997 C 599.570 3765.395, 635.344 3783.180, 653.853 3790.966 C 706.823 3813.249, 765.491 3829.140, 822 3836.511 C 860.004 3841.468, 839.202 3841.181, 1218.500 3841.993 C 1783.477 3843.203, 3224.237 3843.222, 3240 3842.020 C 3341.432 3834.285, 3432.310 3806.760, 3519.016 3757.513 C 3655.001 3680.278, 3761.539 3553.539, 3813.661 3407 C 3836.709 3342.202, 3848.379 3280.472, 3850.996 3209.500 C 3852.297 3174.222, 3852.297 911.778, 3850.996 876.500 C 3849.159 826.680, 3843.881 788.433, 3832.505 742.500 C 3799.086 607.558, 3723.988 487.472, 3616.627 397.299 C 3522.807 318.499, 3409.983 267.808, 3290 250.549 C 3246.515 244.293, 3277.617 244.761, 2853 243.979 C 2472.015 243.277, 876.279 243.045, 866.500 243.690 M 587 2080.334 C 587 2188.317, 586.700 2476.542, 586.334 2720.834 L 585.667 3165 722.710 3165 L 859.752 3165 860.405 2903.750 C 860.763 2760.063, 861.156 2471.837, 861.278 2263.250 L 861.500 1884 724.250 1884 L 587 1884 587 2080.334 M 1110 2050.500 L 1110 2216 1044.500 2216 L 979 2216 979 2305.500 L 979 2395 1044 2395 L 1109 2395 1109.004 2692.250 C 1109.007 2886.558, 1109.365 2994.348, 1110.039 3003.500 C 1113.093 3044.979, 1122.233 3075.458, 1139.272 3100.985 C 1146.403 3111.667, 1163.424 3128.229, 1175.512 3136.248 C 1206.397 3156.736, 1246.587 3168.745, 1304.215 3174.706 C 1333.836 3177.769, 1483.181 3176.849, 1516.750 3173.396 L 1522 3172.856 1522 3078.428 L 1522 2984 1519.129 2984 C 1517.550 2984, 1509.563 2984.766, 1501.379 2985.701 C 1490.999 2986.888, 1479.092 2987.376, 1462 2987.315 C 1414.930 2987.145, 1389.953 2981.592, 1376.718 2968.351 C 1370.959 2962.590, 1367.577 2955.992, 1365.249 2945.976 C 1363.618 2938.958, 1363.529 2922.134, 1363.799 2671.500 C 1363.957 2524.650, 1364.335 2402.363, 1364.637 2399.750 L 1365.188 2395 1444.094 2395 L 1523 2395 1523 2305.500 L 1523 2216 1444 2216 L 1365 2216 1365 2050.500 L 1365 1885 1237.500 1885 L 1110 1885 1110 2050.500 M 3079.659 1891.250 C 3073.894 1901.726, 2976 2088.042, 2976 2088.537 C 2976 2088.792, 3017.287 2088.985, 3067.750 2088.966 L 3159.500 2088.931 3248 1991.449 C 3296.675 1937.833, 3338.234 1891.949, 3340.354 1889.483 L 3344.208 1885 3213.653 1885 L 3083.098 1885 3079.659 1891.250 M 2012 2192.614 C 2008.975 2192.808, 1999.075 2193.441, 1990 2194.021 C 1871.793 2201.582, 1784.307 2234.540, 1725.351 2293.722 C 1674.033 2345.237, 1641.888 2419.616, 1630.690 2512.750 L 1629.337 2524 1752.449 2524 L 1875.560 2524 1877.377 2513.250 C 1879.720 2499.384, 1884.783 2481.854, 1889.816 2470.181 C 1895.779 2456.349, 1903.415 2444.827, 1913.946 2433.767 C 1937.083 2409.469, 1967.145 2396.816, 2011 2392.917 C 2025.759 2391.605, 2065.596 2392.203, 2082 2393.983 C 2133.918 2399.617, 2166.523 2415.196, 2184.957 2443.178 C 2195.824 2459.674, 2200.459 2476.873, 2200.403 2500.500 C 2200.371 2513.990, 2200.101 2516.306, 2197.719 2523.500 C 2194.477 2533.290, 2190.566 2539.694, 2183.158 2547.340 C 2170.239 2560.675, 2151.094 2569.885, 2125.949 2574.862 C 2120.202 2576, 2059.925 2585.067, 1992 2595.012 C 1924.075 2604.957, 1861.750 2614.436, 1853.500 2616.077 C 1780.714 2630.548, 1721.091 2660.144, 1678.132 2703.126 C 1635.510 2745.770, 1610.508 2799.115, 1601.326 2867 C 1599.020 2884.048, 1598.703 2941.498, 1600.827 2957.500 C 1611.599 3038.666, 1648.144 3099.692, 1711 3141.477 C 1723.945 3150.082, 1753.657 3165.148, 1768 3170.379 C 1808.751 3185.241, 1848.209 3191.979, 1894.500 3191.980 C 1976.897 3191.982, 2046.524 3174.272, 2107.092 3137.907 C 2134.984 3121.161, 2158.674 3102.318, 2187.225 3074.167 C 2199.049 3062.509, 2206.114 3056.220, 2206.396 3057.102 C 2206.642 3057.871, 2207.367 3063.675, 2208.006 3070 C 2210.706 3096.695, 2214.586 3115.124, 2224.115 3146.500 L 2230.188 3166.500 2299.844 3166.265 C 2338.155 3166.136, 2387.685 3165.745, 2409.911 3165.395 L 2450.321 3164.759 2449.531 3107.130 C 2449.097 3075.433, 2448.432 2911.350, 2448.054 2742.500 L 2447.366 2435.500 2445.168 2422.500 C 2440.610 2395.541, 2434.124 2374.994, 2423.071 2352.500 C 2381.695 2268.293, 2288.069 2214.925, 2150.231 2196.976 C 2123.397 2193.482, 2110.204 2192.798, 2064.500 2192.534 C 2038.650 2192.385, 2015.025 2192.421, 2012 2192.614 M 2646.685 2537.750 C 2646.260 2748.278, 2646.383 2864.342, 2647.042 2875.500 C 2651.591 2952.542, 2670.099 3014.872, 2703.162 3064.499 C 2714.726 3081.856, 2723.144 3092.195, 2736.974 3106.026 C 2783.818 3152.869, 2845.512 3180.277, 2925 3189.558 C 2943.524 3191.720, 2991.615 3192.584, 3010.530 3191.094 C 3060.740 3187.138, 3102.569 3176.091, 3142 3156.375 C 3171.560 3141.594, 3196.292 3123.780, 3219.526 3100.533 C 3237.638 3082.412, 3252.517 3063.177, 3267.755 3038.189 C 3269.536 3035.268, 3271.445 3033.157, 3271.997 3033.498 C 3272.651 3033.903, 3273 3057.196, 3273 3100.559 L 3273 3167 3395.500 3167 L 3518 3167 3518 2692 L 3518 2217 3390.517 2217 L 3263.033 2217 3262.747 2507.750 L 3262.461 2798.500 3260.189 2812.369 C 3255.249 2842.527, 3246.462 2869.037, 3234.397 2890.181 C 3205.603 2940.643, 3156.681 2972.133, 3094 2980.551 C 3081.779 2982.192, 3052.483 2982.425, 3039.500 2980.985 C 2957.958 2971.938, 2913.254 2926.723, 2903.512 2843.441 C 2902.194 2832.170, 2902 2791.172, 2902 2523.756 L 2902 2217 2774.666 2217 L 2647.331 2217 2646.685 2537.750 M 2197 2706.514 C 2171.225 2725.638, 2122.201 2740.292, 2045 2751.951 C 2017.896 2756.045, 1996.098 2760.203, 1976.249 2765.065 C 1911.418 2780.948, 1874.971 2808.050, 1860.645 2851.027 C 1856.032 2864.865, 1854.867 2872.587, 1854.311 2893 C 1853.700 2915.478, 1854.925 2925.216, 1860.370 2941.158 C 1874.523 2982.593, 1914.645 3010.225, 1965.500 3013.560 C 1994.300 3015.449, 2039.466 3007.685, 2070.771 2995.465 C 2142.751 2967.366, 2190.394 2913.979, 2199.494 2851.223 C 2200.804 2842.186, 2201.005 2829.764, 2200.774 2772.209 L 2200.500 2703.918 2197 2706.514" stroke="none" fill="#2c3493" fill-rule="evenodd"/></svg>