<svg xmlns="http://www.w3.org/2000/svg" width="573" height="573" viewBox="0 0 573 573" version="1.1"><path d="M 34 188.500 L 34 219 82.500 219 C 117.802 219, 131 219.307, 131 220.127 C 131 220.746, 125.552 239.984, 118.893 262.877 C 112.234 285.770, 104.182 313.500, 100.999 324.500 C 97.816 335.500, 91.502 357.325, 86.967 373 C 82.433 388.675, 78.512 402.063, 78.255 402.750 C 77.883 403.741, 90.316 404, 138.354 404 C 203.014 404, 213.708 403.443, 228 399.328 C 237.759 396.519, 241.070 394.751, 249.747 387.719 C 262.072 377.730, 267.947 365.430, 268.755 347.923 C 269.119 340.029, 268.840 335.960, 267.654 331.882 C 265.679 325.086, 259.497 316.309, 254.008 312.505 L 249.847 309.622 253.673 307.680 C 259.359 304.794, 271.054 292.294, 274.318 285.614 C 277.389 279.330, 279.955 268.841, 279.983 262.460 C 280.005 257.362, 277.634 248.164, 274.936 242.874 C 269.388 232, 256.029 223.795, 238.500 220.497 C 232.312 219.333, 237.725 219.170, 285.134 219.090 L 338.767 219 336.504 226.750 C 329.290 251.450, 308.384 323.279, 298.012 359 C 291.385 381.825, 285.713 401.295, 285.409 402.266 C 284.887 403.929, 286.450 404.017, 312.162 403.766 L 339.469 403.500 348.679 371 C 353.744 353.125, 358.155 337.455, 358.481 336.178 L 359.074 333.856 379.787 334.178 C 398.477 334.469, 400.838 334.699, 403.965 336.535 C 410.562 340.411, 411.151 342.607, 412.078 366.803 C 412.536 378.737, 412.931 392.438, 412.955 397.250 L 413 406 438.500 406 C 458.243 406, 463.996 405.718, 463.982 404.750 C 463.972 404.063, 463.322 388.771, 462.537 370.770 C 461.324 342.914, 460.830 337.404, 459.222 333.770 C 456.950 328.632, 451.323 323.450, 446.983 322.496 C 443.844 321.807, 443.879 321.771, 451.159 318.174 C 460.532 313.543, 475.067 299.458, 479.717 290.500 C 487.621 275.274, 488.133 256.944, 481.042 243.073 C 475.521 232.272, 463.381 223.485, 450 220.601 C 444.077 219.325, 447.737 219.192, 491.250 219.100 L 539 219 539 188.500 L 539 158 286.500 158 L 34 158 34 188.500 M 170.115 271.250 C 167.778 279.637, 165.640 287.288, 165.365 288.250 C 164.899 289.883, 166.518 290, 189.567 290 C 205.183 290, 215.669 289.580, 218.078 288.859 C 223.070 287.363, 228.900 282.483, 230.624 278.357 C 232.599 273.631, 232.358 266.099, 230.114 262.420 C 226.529 256.540, 223.810 256, 197.781 256 L 174.365 256 170.115 271.250 M 379.581 261.186 C 373.248 283.436, 370 295.493, 370 296.751 C 370 298.023, 373.352 298.168, 394.250 297.805 C 416.886 297.411, 418.848 297.230, 423.727 295.078 C 429.490 292.537, 436.358 285.782, 438.576 280.472 C 440.465 275.950, 440.382 268.607, 438.394 264.417 C 437.510 262.555, 435.147 260.012, 433.144 258.766 C 429.662 256.601, 428.424 256.486, 405.297 256.186 L 381.093 255.872 379.581 261.186 M 149.098 344.750 C 146.144 355.063, 143.515 364.063, 143.257 364.750 C 142.585 366.534, 185.104 366.460, 193.681 364.663 C 201.553 363.013, 207.023 359.211, 210.368 353.065 C 214.279 345.879, 214.770 340.221, 211.982 334.462 C 208.176 326.602, 205.947 326.048, 177.984 326.022 L 154.468 326 149.098 344.750" stroke="none" fill="#ffffff" fill-rule="evenodd"/><path d="M 34 97 L 34 158 286.500 158 L 539 158 539 97 L 539 36 286.500 36 L 34 36 34 97" stroke="none" fill="#ffcd01" fill-rule="evenodd"/><path d="M 34 378 L 34 537 286.500 537 L 539 537 539 378 L 539 219 491.250 219.100 C 447.737 219.192, 444.077 219.325, 450 220.601 C 463.381 223.485, 475.521 232.272, 481.042 243.073 C 488.133 256.944, 487.621 275.274, 479.717 290.500 C 475.067 299.458, 460.532 313.543, 451.159 318.174 C 443.879 321.771, 443.844 321.807, 446.983 322.496 C 451.323 323.450, 456.950 328.632, 459.222 333.770 C 460.830 337.404, 461.324 342.914, 462.537 370.770 C 463.322 388.771, 463.972 404.063, 463.982 404.750 C 463.996 405.718, 458.243 406, 438.500 406 L 413 406 412.955 397.250 C 412.931 392.438, 412.536 378.737, 412.078 366.803 C 411.151 342.607, 410.562 340.411, 403.965 336.535 C 400.838 334.699, 398.477 334.469, 379.787 334.178 L 359.074 333.856 358.481 336.178 C 358.155 337.455, 353.744 353.125, 348.679 371 L 339.469 403.500 312.162 403.766 C 286.450 404.017, 284.887 403.929, 285.409 402.266 C 285.713 401.295, 291.385 381.825, 298.012 359 C 308.384 323.279, 329.290 251.450, 336.504 226.750 L 338.767 219 285.134 219.090 C 237.725 219.170, 232.312 219.333, 238.500 220.497 C 256.029 223.795, 269.388 232, 274.936 242.874 C 277.634 248.164, 280.005 257.362, 279.983 262.460 C 279.955 268.841, 277.389 279.330, 274.318 285.614 C 271.054 292.294, 259.359 304.794, 253.673 307.680 L 249.847 309.622 254.008 312.505 C 259.497 316.309, 265.679 325.086, 267.654 331.882 C 268.840 335.960, 269.119 340.029, 268.755 347.923 C 267.947 365.430, 262.072 377.730, 249.747 387.719 C 241.070 394.751, 237.759 396.519, 228 399.328 C 213.708 403.443, 203.014 404, 138.354 404 C 90.316 404, 77.883 403.741, 78.255 402.750 C 78.512 402.063, 82.433 388.675, 86.967 373 C 91.502 357.325, 97.816 335.500, 100.999 324.500 C 104.182 313.500, 112.234 285.770, 118.893 262.877 C 125.552 239.984, 131 220.746, 131 220.127 C 131 219.307, 117.802 219, 82.500 219 L 34 219 34 378 M 170.115 271.250 C 167.778 279.637, 165.640 287.288, 165.365 288.250 C 164.899 289.883, 166.518 290, 189.567 290 C 205.183 290, 215.669 289.580, 218.078 288.859 C 223.070 287.363, 228.900 282.483, 230.624 278.357 C 232.599 273.631, 232.358 266.099, 230.114 262.420 C 226.529 256.540, 223.810 256, 197.781 256 L 174.365 256 170.115 271.250 M 379.581 261.186 C 373.248 283.436, 370 295.493, 370 296.751 C 370 298.023, 373.352 298.168, 394.250 297.805 C 416.886 297.411, 418.848 297.230, 423.727 295.078 C 429.490 292.537, 436.358 285.782, 438.576 280.472 C 440.465 275.950, 440.382 268.607, 438.394 264.417 C 437.510 262.555, 435.147 260.012, 433.144 258.766 C 429.662 256.601, 428.424 256.486, 405.297 256.186 L 381.093 255.872 379.581 261.186 M 149.098 344.750 C 146.144 355.063, 143.515 364.063, 143.257 364.750 C 142.585 366.534, 185.104 366.460, 193.681 364.663 C 201.553 363.013, 207.023 359.211, 210.368 353.065 C 214.279 345.879, 214.770 340.221, 211.982 334.462 C 208.176 326.602, 205.947 326.048, 177.984 326.022 L 154.468 326 149.098 344.750" stroke="none" fill="#048b4a" fill-rule="evenodd"/></svg>