<svg xmlns="http://www.w3.org/2000/svg" width="152" height="114" viewBox="0 0 152 114" version="1.1"><path d="M 128.500 5.345 C 123.006 7.171, 118.042 9.717, 107.500 16.119 C 98.341 21.681, 89.036 25.988, 86.117 26.015 C 85.227 26.024, 83.895 26.414, 83.154 26.883 C 81.386 28.004, 91.794 36.101, 99.592 39.671 C 104.564 41.947, 106.162 42.190, 113.602 41.799 C 120.772 41.423, 122.988 40.844, 128.750 37.843 C 134.756 34.714, 136.409 33.133, 143.750 23.493 C 148.287 17.535, 152 11.811, 152 10.774 C 152 6.368, 136.322 2.746, 128.500 5.345 M 72.500 110 C 72.840 110.550, 73.343 111, 73.618 111 C 73.893 111, 73.840 110.550, 73.500 110 C 73.160 109.450, 72.657 109, 72.382 109 C 72.107 109, 72.160 109.450, 72.500 110" stroke="none" fill="#f3c30c" fill-rule="evenodd"/><path d="M 16.336 2.373 C 9.457 4.852, -0 10.378, -0 11.920 C -0 12.471, 2.025 15.408, 4.500 18.447 C 6.975 21.486, 9 24.391, 9 24.903 C 9 25.414, 9.337 25.983, 9.750 26.167 C 10.162 26.350, 12.525 29.198, 15 32.496 C 17.475 35.794, 19.844 38.944, 20.265 39.496 C 20.685 40.048, 23.358 43.650, 26.204 47.500 C 29.050 51.350, 34.243 58.325, 37.744 63 C 41.246 67.675, 44.873 72.541, 45.805 73.813 C 52.842 83.418, 55.313 86.544, 56.097 86.833 C 56.594 87.017, 57 87.558, 57 88.037 C 57 89.456, 74.955 113, 76.037 113 C 76.345 113, 79.050 109.582, 82.048 105.405 C 85.047 101.228, 87.950 97.290, 88.500 96.655 C 91.832 92.807, 134.996 34.849, 134.312 35.142 C 133.852 35.339, 130.830 36.822, 127.596 38.437 C 122.919 40.773, 120.028 41.462, 113.460 41.807 C 106.178 42.189, 104.542 41.937, 99.592 39.671 C 94.451 37.317, 82.633 29.055, 81.836 27.258 C 81.651 26.841, 79.025 24.481, 76 22.014 C 72.975 19.547, 70.180 17.032, 69.790 16.424 C 68.364 14.207, 54.971 5.898, 48.132 2.988 C 41.947 0.356, 40 0.009, 31.805 0.076 C 24.855 0.133, 20.940 0.714, 16.336 2.373" stroke="none" fill="#048c84" fill-rule="evenodd"/></svg>